<svg width="100" height="100" xmlns="http://www.w3.org/2000/svg" xmlns:xlink="http://www.w3.org/1999/xlink">
<!-- Определение элементов -->
<defs>
  <circle x="0.5" y="0.5" r="1.5" style="fill:blue;stroke:blue;" id="junction"/>
  <g width="30" height="10" id="connector">
    <path
	style="fill:none;stroke:black;stroke-width:1"
	d="M10.5,5.5 a3,3,0,0,1,-6,0 a3,3,0,0,1,6,0 h20"
    />
  </g>
  <g width="30" height="10" id="resistor">
    <path
	transform="translate(1,0) rotate(90,15,5)"
	style="fill:none;stroke:black;stroke-width:1"
	d="M0.5,5.5 h3 l2,-3 l4,6 l4,-6 l4,6 l4,-6 l4,6 l2,-3 h3"
    />
  </g>
</defs>
<!-- Расстановка элементов -->
<g transform="translate(5, 10)"><use xlink:href="#connector"/><text x="20" font-size="10">+</text> </g>
<g transform="translate(25,40)"><use xlink:href="#resistor"/> <text x="-5" y="10" font-size="10">R1</text></g>
<g transform="translate(5, 70)"><use xlink:href="#connector"/><text x="20" font-size="10">-</text> </g>
<!-- Связи -->
<path d="M35.5,15.5 h5 v15 m0,30 v15 h-5" stroke="red" fill="none"/>
<path d="M40.5,15.5 h25 v60 h-25" stroke="red" fill="none"/>
<!-- Соединения -->
<use xlink:href="#junction" transform="translate(40,15)"/>
<use xlink:href="#junction" transform="translate(40,75)"/>
<!-- Прочее -->
<text x="50" y="88" width="100" text-anchor="middle" font-family="cursive" font-size="10">Сопротивление</text>
<text x="50" y="98" width="100" text-anchor="middle" font-family="monospace" font-size="10">безвредно</text>
</svg>